<?xml version="1.0" encoding="UTF-8" standalone="no"?>
<!DOCTYPE svg PUBLIC "-//W3C//DTD SVG 1.1//EN" "http://www.w3.org/Graphics/SVG/1.1/DTD/svg11.dtd">
<svg version="1.1" xmlns="http://www.w3.org/2000/svg" xmlns:xlink="http://www.w3.org/1999/xlink" preserveAspectRatio="xMidYMid meet" viewBox="0 0 640 640" width="640" height="640"><defs><path d="M320 0C143.27 0 0 143.27 0 320C0 496.73 143.27 640 320 640C496.73 640 640 496.73 640 320C640 143.27 496.73 0 320 0Z" id="b11nMXEB3c"></path><path d="M323.29 0.27L323.29 0.53L323.03 0L323.03 1.06L81.7 537.37L47.18 614.08L150.19 612.22L205.15 473.64L323.03 473.64L323.56 473.37L451.79 473.64L512.85 613.55L611.35 615.41L323.56 1.33L323.29 0.27ZM417.28 391.87L323.56 391.87L323.56 391.87L323.56 391.87L242.32 391.87L324.35 197.53L417.28 391.87Z" id="b3ahJkoTk"></path></defs><g><g><g><use xlink:href="#b11nMXEB3c" opacity="1" fill="#fd7014" fill-opacity="1"></use><g><use xlink:href="#b11nMXEB3c" opacity="1" fill-opacity="0" stroke="#000000" stroke-width="1" stroke-opacity="0"></use></g></g><g><use xlink:href="#b3ahJkoTk" opacity="1" fill="#ffffff" fill-opacity="1"></use><g><use xlink:href="#b3ahJkoTk" opacity="1" fill-opacity="0" stroke="#000000" stroke-width="1" stroke-opacity="0"></use></g></g></g></g></svg>